<svg xmlns="http://www.w3.org/2000/svg" version="1.1" xmlns:xlink="http://www.w3.org/1999/xlink" xmlns:svgjs="http://svgjs.dev/svgjs" width="2000" height="1500" viewBox="0 0 2000 1500"><rect width="2000" height="1500" fill="#333366"></rect><g transform="matrix(0.75,0,0,0.75,250.15999999999997,265.38912287625396)"><svg viewBox="0 0 375 242" data-background-color="#333366" preserveAspectRatio="xMidYMid meet" height="1290" width="2000" xmlns="http://www.w3.org/2000/svg" xmlns:xlink="http://www.w3.org/1999/xlink"><g id="tight-bounds" transform="matrix(1,0,0,1,-0.03976036071776434,0.21533050537109943)"><svg viewBox="0 0 375.07952880859375 241.5693359375" height="241.5693359375" width="375.07952880859375"><g><svg></svg></g><g><svg viewBox="0 0 375.07952880859375 241.5693359375" height="241.5693359375" width="375.07952880859375"><g transform="matrix(1,0,0,1,-10.220239639282227,-5.6306610107421875)"><path xmlns="http://www.w3.org/2000/svg" d="M10.22 241.569v-235.938h375.08v235.938h-20.19l0-3.047h17.142v-229.844h-368.984v229.844l29.925 0 0 3.047z" fill="#ffff33" fill-rule="nonzero" stroke="none" stroke-width="1" stroke-linecap="butt" stroke-linejoin="miter" stroke-miterlimit="10" stroke-dasharray="" stroke-dashoffset="0" font-family="none" font-weight="none" font-size="none" text-anchor="none" style="mix-blend-mode: normal" data-fill-palette-color="tertiary"></path><g><path xmlns="http://www.w3.org/2000/svg" d="M55.912 247.007h-3.074c-0.129 0-0.245-0.049-0.348-0.147-0.103-0.095-0.155-0.214-0.155-0.356v0-12.53c0-0.142 0.052-0.262 0.155-0.359 0.103-0.095 0.219-0.143 0.348-0.144v0h9.32c0.142 0 0.264 0.048 0.367 0.144 0.103 0.098 0.155 0.218 0.155 0.359v0 2.456c0 0.129-0.052 0.245-0.155 0.348-0.103 0.103-0.226 0.155-0.367 0.155v0h-5.743v2.127h5.356c0.142 0 0.264 0.048 0.367 0.143 0.103 0.098 0.155 0.218 0.155 0.359v0 2.437c0 0.142-0.052 0.26-0.155 0.355-0.103 0.098-0.226 0.147-0.367 0.147v0h-5.356v4.003c0 0.142-0.048 0.26-0.143 0.356-0.098 0.098-0.218 0.147-0.36 0.147zM73.462 247.2v0c-1.199 0-2.252-0.187-3.16-0.561-0.91-0.374-1.619-0.958-2.127-1.752-0.51-0.791-0.766-1.793-0.766-3.004v0-7.909c0-0.142 0.052-0.262 0.155-0.359 0.103-0.095 0.219-0.143 0.348-0.144v0h3.152c0.142 0 0.262 0.048 0.36 0.144 0.095 0.098 0.143 0.218 0.143 0.359v0 7.851c0 0.657 0.161 1.154 0.483 1.488 0.322 0.335 0.786 0.503 1.392 0.503v0c0.606 0 1.067-0.168 1.385-0.503 0.315-0.335 0.472-0.831 0.471-1.488v0-7.851c0-0.142 0.052-0.262 0.155-0.359 0.103-0.095 0.226-0.143 0.368-0.144v0h3.132c0.142 0 0.262 0.048 0.36 0.144 0.095 0.098 0.143 0.218 0.143 0.359v0 7.909c0 1.212-0.251 2.213-0.754 3.004-0.503 0.794-1.205 1.378-2.108 1.752-0.902 0.374-1.946 0.561-3.132 0.561zM94.553 247.007h-9.32c-0.129 0-0.245-0.049-0.348-0.147-0.103-0.095-0.155-0.214-0.154-0.356v0-12.53c0-0.142 0.052-0.262 0.154-0.359 0.103-0.095 0.219-0.143 0.348-0.144v0h3.21c0.142 0 0.264 0.048 0.367 0.144 0.103 0.098 0.155 0.218 0.155 0.359v0 9.591h5.588c0.142 0 0.264 0.048 0.368 0.143 0.103 0.098 0.155 0.218 0.154 0.36v0 2.436c0 0.142-0.052 0.26-0.154 0.356-0.103 0.098-0.226 0.147-0.368 0.147zM109.338 247.007h-9.32c-0.129 0-0.245-0.049-0.348-0.147-0.103-0.095-0.155-0.214-0.155-0.356v0-12.53c0-0.142 0.052-0.262 0.155-0.359 0.103-0.095 0.219-0.143 0.348-0.144v0h3.209c0.142 0 0.264 0.048 0.368 0.144 0.103 0.098 0.155 0.218 0.154 0.359v0 9.591h5.589c0.142 0 0.264 0.048 0.367 0.143 0.103 0.098 0.155 0.218 0.155 0.36v0 2.436c0 0.142-0.052 0.26-0.155 0.356-0.103 0.098-0.226 0.147-0.367 0.147zM120.781 242.849h-6.188c-0.129 0-0.245-0.049-0.348-0.147-0.103-0.095-0.155-0.214-0.155-0.355v0-2.282c0-0.142 0.052-0.262 0.155-0.36 0.103-0.095 0.219-0.143 0.348-0.143v0h6.188c0.142 0 0.26 0.048 0.355 0.143 0.098 0.098 0.147 0.218 0.147 0.36v0 2.282c0 0.142-0.049 0.26-0.147 0.355-0.095 0.098-0.214 0.147-0.355 0.147zM131.794 247.2v0c-1.354 0-2.478-0.191-3.372-0.572-0.897-0.379-1.568-0.875-2.011-1.489-0.446-0.611-0.682-1.258-0.707-1.942v0c0-0.116 0.039-0.213 0.116-0.29 0.077-0.077 0.174-0.116 0.29-0.116v0h3.074c0.18 0 0.322 0.028 0.425 0.085 0.103 0.059 0.213 0.141 0.329 0.244v0c0.116 0.142 0.251 0.273 0.406 0.395 0.155 0.124 0.354 0.22 0.6 0.29 0.245 0.072 0.529 0.108 0.85 0.108v0c0.593 0 1.051-0.081 1.373-0.244 0.322-0.16 0.483-0.382 0.484-0.665v0c0-0.219-0.086-0.4-0.259-0.541-0.175-0.142-0.469-0.271-0.882-0.387-0.412-0.116-0.973-0.238-1.682-0.367v0c-0.993-0.168-1.85-0.416-2.572-0.747-0.722-0.327-1.272-0.771-1.651-1.33-0.382-0.562-0.572-1.256-0.573-2.081v0c0-0.838 0.236-1.579 0.708-2.223 0.469-0.645 1.127-1.147 1.972-1.509 0.843-0.361 1.825-0.541 2.947-0.541v0c0.928 0 1.751 0.122 2.467 0.367 0.714 0.245 1.316 0.563 1.806 0.956 0.49 0.394 0.864 0.817 1.122 1.268 0.258 0.451 0.393 0.883 0.406 1.296v0c0 0.116-0.041 0.215-0.124 0.297-0.085 0.085-0.179 0.128-0.282 0.128v0h-3.229c-0.155 0-0.284-0.026-0.387-0.077-0.103-0.052-0.206-0.135-0.309-0.252v0c-0.064-0.18-0.226-0.342-0.484-0.483-0.258-0.142-0.587-0.213-0.986-0.213v0c-0.438 0-0.773 0.073-1.005 0.221-0.232 0.15-0.348 0.366-0.348 0.649v0c0 0.193 0.071 0.361 0.212 0.503 0.142 0.142 0.393 0.267 0.754 0.375 0.361 0.111 0.864 0.231 1.509 0.36v0c1.225 0.18 2.215 0.438 2.97 0.773 0.753 0.335 1.303 0.773 1.651 1.315 0.348 0.541 0.522 1.218 0.522 2.03v0c0 0.915-0.264 1.702-0.793 2.359-0.529 0.657-1.253 1.163-2.173 1.516-0.923 0.356-1.977 0.534-3.164 0.534zM149.266 247.007h-3.209c-0.142 0-0.26-0.049-0.356-0.147-0.098-0.095-0.147-0.214-0.147-0.356v0-9.436h-3.326c-0.142 0-0.26-0.049-0.356-0.147-0.098-0.095-0.147-0.214-0.147-0.356v0-2.591c0-0.142 0.049-0.262 0.147-0.359 0.095-0.095 0.214-0.143 0.356-0.144v0h10.867c0.142 0 0.262 0.048 0.36 0.144 0.095 0.098 0.143 0.218 0.143 0.359v0 2.591c0 0.142-0.048 0.26-0.143 0.356-0.098 0.098-0.218 0.147-0.36 0.147v0h-3.326v9.436c0 0.142-0.048 0.26-0.143 0.356-0.098 0.098-0.218 0.147-0.36 0.147zM160.419 247.007h-2.977c-0.116 0-0.213-0.043-0.29-0.128-0.077-0.083-0.116-0.182-0.116-0.298v0c0-0.052 0.006-0.097 0.019-0.135v0l4.409-12.375c0.052-0.142 0.142-0.277 0.27-0.406 0.129-0.129 0.309-0.193 0.542-0.194v0h3.538c0.245 0 0.432 0.064 0.561 0.194 0.129 0.129 0.213 0.264 0.251 0.406v0l4.428 12.375c0.013 0.039 0.019 0.084 0.02 0.135v0c0 0.116-0.043 0.215-0.128 0.298-0.083 0.085-0.182 0.128-0.298 0.128v0h-2.978c-0.219 0-0.38-0.052-0.483-0.155-0.103-0.103-0.174-0.2-0.213-0.29v0l-0.599-1.624h-4.66l-0.599 1.624c-0.039 0.09-0.107 0.187-0.205 0.29-0.095 0.103-0.259 0.155-0.492 0.155zM164.035 237.319l-1.431 4.351h2.881zM181.159 247.2v0c-1.225 0-2.295-0.191-3.21-0.572-0.915-0.379-1.633-0.955-2.154-1.729-0.523-0.773-0.811-1.753-0.862-2.939v0c-0.013-0.529-0.019-1.096-0.019-1.702 0-0.606 0.006-1.186 0.019-1.74v0c0.052-1.16 0.345-2.131 0.882-2.912 0.534-0.779 1.262-1.361 2.185-1.748 0.92-0.387 1.974-0.58 3.159-0.58v0c0.851 0 1.647 0.099 2.39 0.298 0.74 0.201 1.4 0.504 1.98 0.909 0.58 0.407 1.038 0.907 1.373 1.5 0.335 0.593 0.509 1.289 0.522 2.088v0c0 0.116-0.041 0.215-0.124 0.298-0.085 0.085-0.186 0.128-0.301 0.128v0h-3.268c-0.193 0-0.335-0.039-0.425-0.116-0.09-0.077-0.168-0.213-0.232-0.406v0c-0.168-0.554-0.412-0.928-0.735-1.122-0.322-0.193-0.715-0.29-1.18-0.29v0c-0.567 0-1.018 0.151-1.353 0.453-0.335 0.304-0.516 0.837-0.542 1.597v0c-0.039 1.057-0.039 2.14 0 3.248v0c0.026 0.761 0.206 1.292 0.542 1.594 0.335 0.304 0.786 0.456 1.353 0.456v0c0.464 0 0.861-0.103 1.191-0.31 0.327-0.206 0.568-0.574 0.724-1.102v0c0.052-0.206 0.126-0.345 0.224-0.417 0.095-0.07 0.24-0.104 0.433-0.105v0h3.268c0.116 0 0.217 0.039 0.301 0.116 0.083 0.077 0.124 0.174 0.124 0.29v0c-0.013 0.799-0.187 1.498-0.522 2.096-0.335 0.601-0.793 1.103-1.373 1.509-0.58 0.407-1.24 0.71-1.98 0.908-0.743 0.201-1.539 0.302-2.39 0.302zM195.754 247.007h-3.074c-0.129 0-0.245-0.049-0.348-0.147-0.103-0.095-0.155-0.214-0.155-0.356v0-12.53c0-0.142 0.052-0.262 0.155-0.359 0.103-0.095 0.219-0.143 0.348-0.144v0h3.074c0.142 0 0.26 0.048 0.356 0.144 0.098 0.098 0.147 0.218 0.147 0.359v0 4.061l2.881-4.158c0.064-0.09 0.155-0.18 0.271-0.27 0.116-0.09 0.277-0.135 0.483-0.136v0h3.538c0.116 0 0.215 0.041 0.298 0.124 0.085 0.085 0.128 0.186 0.128 0.302v0c0 0.077-0.026 0.148-0.077 0.213v0l-4.061 5.839 4.409 6.42c0.052 0.052 0.077 0.122 0.077 0.212v0c0 0.116-0.043 0.215-0.128 0.298-0.083 0.085-0.182 0.128-0.297 0.128v0h-3.636c-0.258 0-0.449-0.058-0.572-0.174-0.121-0.116-0.195-0.2-0.22-0.252v0l-3.094-4.486v4.409c0 0.142-0.049 0.26-0.147 0.356-0.095 0.098-0.214 0.147-0.356 0.147zM221.208 247.007h-5.395c-0.129 0-0.245-0.049-0.348-0.147-0.103-0.095-0.155-0.214-0.155-0.356v0-12.53c0-0.142 0.052-0.262 0.155-0.359 0.103-0.095 0.219-0.143 0.348-0.144v0h5.298c1.25 0 2.333 0.202 3.249 0.608 0.915 0.407 1.637 1.004 2.165 1.79 0.529 0.786 0.812 1.753 0.851 2.9v0c0.026 0.554 0.039 1.044 0.039 1.47 0 0.425-0.013 0.909-0.039 1.45v0c-0.052 1.212-0.326 2.211-0.824 2.997-0.495 0.786-1.194 1.369-2.096 1.748-0.902 0.382-1.985 0.572-3.248 0.573zM219.468 236.759v6.961h1.643c0.425 0 0.786-0.071 1.083-0.213 0.296-0.142 0.529-0.365 0.696-0.669 0.168-0.302 0.258-0.691 0.271-1.168v0c0.013-0.374 0.022-0.709 0.027-1.006 0.008-0.296 0.008-0.593 0-0.889-0.005-0.296-0.014-0.625-0.027-0.986v0c-0.026-0.709-0.229-1.225-0.611-1.547-0.379-0.322-0.891-0.483-1.535-0.483v0zM242.489 247.007h-9.629c-0.129 0-0.245-0.049-0.348-0.147-0.103-0.095-0.155-0.214-0.155-0.356v0-12.53c0-0.142 0.052-0.262 0.155-0.359 0.103-0.095 0.219-0.143 0.348-0.144v0h9.475c0.142 0 0.264 0.048 0.367 0.144 0.103 0.098 0.155 0.218 0.155 0.359v0 2.282c0 0.129-0.052 0.245-0.155 0.348-0.103 0.103-0.226 0.155-0.367 0.155v0h-5.975v1.914h5.549c0.142 0 0.264 0.048 0.368 0.143 0.103 0.098 0.155 0.218 0.154 0.36v0 2.088c0 0.142-0.052 0.26-0.154 0.356-0.103 0.098-0.226 0.147-0.368 0.147v0h-5.549v1.953h6.129c0.142 0 0.264 0.052 0.368 0.154 0.103 0.103 0.155 0.226 0.154 0.368v0 2.262c0 0.142-0.052 0.26-0.154 0.356-0.103 0.098-0.226 0.147-0.368 0.147zM255.456 247.007h-3.674c-0.245 0-0.434-0.064-0.568-0.194-0.137-0.129-0.224-0.264-0.263-0.406v0l-3.81-12.375c-0.013-0.052-0.019-0.097-0.019-0.135v0c0-0.116 0.043-0.217 0.128-0.302 0.083-0.083 0.182-0.124 0.298-0.124v0h2.997c0.232 0 0.412 0.064 0.541 0.194 0.129 0.129 0.213 0.258 0.251 0.387v0l2.282 8.063 2.282-8.063c0.039-0.129 0.122-0.258 0.251-0.387 0.129-0.129 0.309-0.193 0.541-0.194v0h2.998c0.116 0 0.213 0.041 0.29 0.124 0.077 0.085 0.116 0.186 0.116 0.302v0c0 0.039-0.006 0.084-0.02 0.135v0l-3.79 12.375c-0.039 0.142-0.125 0.277-0.259 0.406-0.137 0.129-0.327 0.193-0.572 0.194zM274.788 247.007h-9.629c-0.129 0-0.245-0.049-0.348-0.147-0.103-0.095-0.155-0.214-0.155-0.356v0-12.53c0-0.142 0.052-0.262 0.155-0.359 0.103-0.095 0.219-0.143 0.348-0.144v0h9.474c0.142 0 0.264 0.048 0.368 0.144 0.103 0.098 0.155 0.218 0.154 0.359v0 2.282c0 0.129-0.052 0.245-0.154 0.348-0.103 0.103-0.226 0.155-0.368 0.155v0h-5.974v1.914h5.549c0.142 0 0.264 0.048 0.367 0.143 0.103 0.098 0.155 0.218 0.155 0.36v0 2.088c0 0.142-0.052 0.26-0.155 0.356-0.103 0.098-0.226 0.147-0.367 0.147v0h-5.549v1.953h6.129c0.142 0 0.264 0.052 0.367 0.154 0.103 0.103 0.155 0.226 0.155 0.368v0 2.262c0 0.142-0.052 0.26-0.155 0.356-0.103 0.098-0.226 0.147-0.367 0.147zM290.075 247.007h-9.32c-0.129 0-0.245-0.049-0.348-0.147-0.103-0.095-0.155-0.214-0.155-0.356v0-12.53c0-0.142 0.052-0.262 0.155-0.359 0.103-0.095 0.219-0.143 0.348-0.144v0h3.21c0.142 0 0.264 0.048 0.367 0.144 0.103 0.098 0.155 0.218 0.155 0.359v0 9.591h5.588c0.142 0 0.264 0.048 0.368 0.143 0.103 0.098 0.155 0.218 0.154 0.36v0 2.436c0 0.142-0.052 0.26-0.154 0.356-0.103 0.098-0.226 0.147-0.368 0.147zM300.88 247.2v0c-1.238 0-2.311-0.193-3.221-0.58-0.907-0.387-1.623-0.971-2.147-1.752-0.521-0.779-0.801-1.748-0.839-2.908v0c-0.013-0.541-0.019-1.1-0.019-1.675 0-0.572 0.006-1.142 0.019-1.709v0c0.039-1.147 0.318-2.114 0.839-2.9 0.523-0.786 1.243-1.383 2.158-1.791 0.915-0.405 1.985-0.607 3.21-0.607v0c1.212 0 2.275 0.202 3.191 0.607 0.915 0.407 1.637 1.004 2.165 1.791 0.529 0.786 0.806 1.753 0.832 2.9v0c0.026 0.567 0.039 1.137 0.038 1.709 0 0.575-0.013 1.133-0.038 1.675v0c-0.039 1.16-0.32 2.13-0.843 2.908-0.521 0.781-1.236 1.365-2.147 1.752-0.907 0.387-1.974 0.58-3.198 0.58zM300.88 243.913v0c0.541 0 0.986-0.165 1.334-0.495 0.348-0.327 0.529-0.852 0.542-1.574v0c0.026-0.554 0.039-1.093 0.038-1.617 0-0.521-0.013-1.052-0.038-1.593v0c-0.013-0.477-0.101-0.87-0.263-1.179-0.16-0.309-0.379-0.535-0.658-0.677-0.276-0.142-0.594-0.213-0.955-0.213v0c-0.361 0-0.683 0.071-0.967 0.213-0.284 0.142-0.507 0.367-0.669 0.677-0.16 0.309-0.246 0.703-0.259 1.179v0c-0.013 0.541-0.019 1.073-0.019 1.593 0 0.523 0.006 1.062 0.019 1.617v0c0.026 0.722 0.209 1.247 0.549 1.574 0.343 0.33 0.791 0.495 1.346 0.495zM315.877 247.007h-3.306c-0.129 0-0.245-0.049-0.348-0.147-0.103-0.095-0.155-0.214-0.155-0.356v0-12.53c0-0.142 0.052-0.262 0.155-0.359 0.103-0.095 0.219-0.143 0.348-0.144v0h5.646c1.121 0 2.099 0.168 2.931 0.503 0.83 0.335 1.477 0.844 1.941 1.528 0.464 0.683 0.696 1.54 0.697 2.571v0c0 1.031-0.232 1.878-0.697 2.541-0.464 0.665-1.111 1.152-1.941 1.462-0.833 0.309-1.81 0.464-2.931 0.464v0h-1.837v3.964c0 0.142-0.048 0.26-0.143 0.356-0.098 0.098-0.218 0.147-0.36 0.147zM316.303 236.604v2.823h1.817c0.374 0 0.694-0.113 0.959-0.34 0.263-0.224 0.394-0.575 0.395-1.052v0c0-0.374-0.103-0.706-0.31-0.998-0.206-0.289-0.554-0.433-1.044-0.433v0zM338.531 247.007h-9.629c-0.129 0-0.245-0.049-0.348-0.147-0.103-0.095-0.155-0.214-0.155-0.356v0-12.53c0-0.142 0.052-0.262 0.155-0.359 0.103-0.095 0.219-0.143 0.348-0.144v0h9.475c0.142 0 0.264 0.048 0.367 0.144 0.103 0.098 0.155 0.218 0.155 0.359v0 2.282c0 0.129-0.052 0.245-0.155 0.348-0.103 0.103-0.226 0.155-0.367 0.155v0h-5.975v1.914h5.549c0.142 0 0.264 0.048 0.367 0.143 0.103 0.098 0.155 0.218 0.155 0.36v0 2.088c0 0.142-0.052 0.26-0.155 0.356-0.103 0.098-0.226 0.147-0.367 0.147v0h-5.549v1.953h6.129c0.142 0 0.264 0.052 0.368 0.154 0.103 0.103 0.155 0.226 0.154 0.368v0 2.262c0 0.142-0.052 0.26-0.154 0.356-0.103 0.098-0.226 0.147-0.368 0.147zM347.654 247.007h-3.152c-0.129 0-0.245-0.049-0.348-0.147-0.103-0.095-0.155-0.214-0.155-0.356v0-12.53c0-0.142 0.052-0.262 0.155-0.359 0.103-0.095 0.219-0.143 0.348-0.144v0h5.511c1.753 0 3.129 0.4 4.126 1.199 1 0.799 1.5 1.914 1.501 3.345v0c0 0.902-0.206 1.669-0.619 2.301-0.412 0.632-0.954 1.128-1.624 1.489v0l2.513 4.564c0.039 0.077 0.058 0.148 0.058 0.212v0c0 0.116-0.039 0.215-0.116 0.298-0.077 0.085-0.174 0.128-0.29 0.128v0h-3.267c-0.245 0-0.432-0.062-0.561-0.186-0.129-0.121-0.213-0.233-0.252-0.336v0l-1.933-3.984h-1.392v4.003c0 0.142-0.049 0.26-0.147 0.356-0.095 0.098-0.214 0.147-0.356 0.147zM348.157 236.604v2.707h1.837c0.451 0 0.786-0.126 1.005-0.379 0.219-0.25 0.329-0.562 0.329-0.936v0c0-0.387-0.107-0.715-0.321-0.986-0.211-0.271-0.549-0.406-1.013-0.406v0z" fill="#ffffff" fill-rule="nonzero" stroke="none" stroke-width="1" stroke-linecap="butt" stroke-linejoin="miter" stroke-miterlimit="10" stroke-dasharray="" stroke-dashoffset="0" font-family="none" font-weight="none" font-size="none" text-anchor="none" style="mix-blend-mode: normal" data-fill-palette-color="secondary"></path></g></g><g transform="matrix(1,0,0,1,29.331764404296877,76.5508488020695)"><svg viewBox="0 0 316.416 88.46763833336101" height="88.46763833336101" width="316.416"><g><svg viewBox="0 0 316.416 88.46763833336101" height="88.46763833336101" width="316.416"><g><svg viewBox="0 0 316.416 88.46763833336101" height="88.46763833336101" width="316.416"><g transform="matrix(1,0,0,1,0,54.67654963564521)"><svg viewBox="0 0 316.416 33.79108869771581" height="33.79108869771581" width="316.416"><g id="textblocktransform"><svg viewBox="0 0 316.416 33.79108869771581" height="33.79108869771581" width="316.416" id="textblock"><g><svg viewBox="0 0 316.416 33.79108869771581" height="33.79108869771581" width="316.416"><g transform="matrix(1,0,0,1,0,0)"><svg width="316.416" viewBox="3.0999999046325684 -35.5 337.07000732421875 36" height="33.79108869771581" data-palette-color="#ffff33"><path d="M18.35 0L4.4 0Q3.9 0 3.5-0.38 3.1-0.75 3.1-1.3L3.1-1.3 3.1-33.7Q3.1-34.25 3.5-34.63 3.9-35 4.4-35L4.4-35 18.1-35Q22.95-35 26.5-33.43 30.05-31.85 32.1-28.8 34.15-25.75 34.3-21.3L34.3-21.3Q34.4-19.15 34.4-17.5 34.4-15.85 34.3-13.75L34.3-13.75Q34.1-9.05 32.18-6 30.25-2.95 26.75-1.48 23.25 0 18.35 0L18.35 0ZM13.85-26.5L13.85-8.5 18.1-8.5Q19.75-8.5 20.9-9.05 22.05-9.6 22.7-10.78 23.35-11.95 23.4-13.8L23.4-13.8Q23.45-15.25 23.48-16.4 23.5-17.55 23.48-18.7 23.45-19.85 23.4-21.25L23.4-21.25Q23.3-24 21.83-25.25 20.35-26.5 17.85-26.5L17.85-26.5 13.85-26.5ZM48.4 0L40.3 0Q39.75 0 39.37-0.38 39-0.75 39-1.3L39-1.3 39-34.2Q39-34.75 39.37-35.13 39.75-35.5 40.3-35.5L40.3-35.5 48.4-35.5Q48.9-35.5 49.3-35.13 49.7-34.75 49.7-34.2L49.7-34.2 49.7-23.25Q51-24.75 52.97-25.63 54.95-26.5 57.45-26.5L57.45-26.5Q60.15-26.5 62.42-25.25 64.7-24 66.07-21.5 67.45-19 67.45-15.2L67.45-15.2 67.45-1.3Q67.45-0.75 67.05-0.38 66.65 0 66.15 0L66.15 0 58 0Q57.45 0 57.07-0.38 56.7-0.75 56.7-1.3L56.7-1.3 56.7-14.85Q56.7-16.7 55.8-17.7 54.9-18.7 53.25-18.7L53.25-18.7Q51.6-18.7 50.65-17.7 49.7-16.7 49.7-14.85L49.7-14.85 49.7-1.3Q49.7-0.75 49.3-0.38 48.9 0 48.4 0L48.4 0ZM81.5 0L73.65 0Q73.09 0 72.72-0.38 72.34-0.75 72.34-1.3L72.34-1.3 72.34-24.7Q72.34-25.25 72.72-25.63 73.09-26 73.65-26L73.65-26 80.9-26Q81.45-26 81.82-25.63 82.2-25.25 82.2-24.7L82.2-24.7 82.2-22.85Q83.7-24.3 85.62-25.15 87.55-26 89.84-26L89.84-26 92.09-26Q92.65-26 93.05-25.63 93.45-25.25 93.45-24.7L93.45-24.7 93.45-18.25Q93.45-17.7 93.05-17.32 92.65-16.95 92.09-16.95L92.09-16.95 86.5-16.95Q84.7-16.95 83.75-16 82.8-15.05 82.8-13.25L82.8-13.25 82.8-1.3Q82.8-0.75 82.42-0.38 82.05 0 81.5 0L81.5 0ZM106.14 0.5L106.14 0.5Q103.49 0.5 101.27-0.75 99.04-2 97.72-4.5 96.39-7 96.39-10.8L96.39-10.8 96.39-24.7Q96.39-25.25 96.77-25.63 97.14-26 97.69-26L97.69-26 105.59-26Q106.14-26 106.52-25.63 106.89-25.25 106.89-24.7L106.89-24.7 106.89-11.15Q106.89-7.3 110.34-7.3L110.34-7.3Q111.99-7.3 112.92-8.3 113.84-9.3 113.84-11.15L113.84-11.15 113.84-24.7Q113.84-25.25 114.22-25.63 114.59-26 115.14-26L115.14-26 123.04-26Q123.54-26 123.94-25.63 124.34-25.25 124.34-24.7L124.34-24.7 124.34-1.3Q124.34-0.75 123.94-0.38 123.54 0 123.04 0L123.04 0 115.74 0Q115.19 0 114.82-0.38 114.44-0.75 114.44-1.3L114.44-1.3 114.44-3.1Q113.19-1.25 111.04-0.38 108.89 0.5 106.14 0.5ZM145.54 0L138.89 0Q138.14 0 137.79-0.4 137.44-0.8 137.19-1.25L137.19-1.25 127.64-24.45Q127.59-24.65 127.59-24.85L127.59-24.85Q127.59-25.3 127.94-25.65 128.29-26 128.74-26L128.74-26 135.84-26Q136.54-26 136.89-25.63 137.24-25.25 137.39-24.9L137.39-24.9 142.19-11.35 147.04-24.9Q147.19-25.25 147.54-25.63 147.89-26 148.59-26L148.59-26 155.64-26Q156.14-26 156.47-25.65 156.79-25.3 156.79-24.85L156.79-24.85Q156.79-24.65 156.74-24.45L156.74-24.45 147.24-1.25Q147.04-0.8 146.67-0.4 146.29 0 145.54 0L145.54 0ZM184.44 0.5L184.44 0.5Q179.19 0.5 175.71-0.98 172.24-2.45 170.51-4.83 168.79-7.2 168.69-9.85L168.69-9.85Q168.69-10.3 168.99-10.6 169.29-10.9 169.74-10.9L169.74-10.9 177.69-10.9Q178.39-10.9 178.79-10.68 179.19-10.45 179.64-10.05L179.64-10.05Q180.09-9.5 180.69-9.03 181.29-8.55 182.24-8.28 183.19-8 184.44-8L184.44-8Q186.74-8 187.99-8.63 189.24-9.25 189.24-10.35L189.24-10.35Q189.24-11.2 188.56-11.75 187.89-12.3 186.29-12.75 184.69-13.2 181.94-13.7L181.94-13.7Q178.09-14.35 175.29-15.63 172.49-16.9 171.01-19.07 169.54-21.25 169.54-24.45L169.54-24.45Q169.54-27.7 171.36-30.2 173.19-32.7 176.46-34.1 179.74-35.5 184.09-35.5L184.09-35.5Q187.69-35.5 190.46-34.55 193.24-33.6 195.14-32.08 197.04-30.55 198.04-28.8 199.04-27.05 199.09-25.45L199.09-25.45Q199.09-25 198.76-24.68 198.44-24.35 198.04-24.35L198.04-24.35 189.69-24.35Q189.09-24.35 188.69-24.55 188.29-24.75 187.89-25.2L187.89-25.2Q187.64-25.9 186.64-26.45 185.64-27 184.09-27L184.09-27Q182.39-27 181.49-26.43 180.59-25.85 180.59-24.75L180.59-24.75Q180.59-24 181.14-23.45 181.69-22.9 183.09-22.48 184.49-22.05 186.99-21.55L186.99-21.55Q191.74-20.85 194.66-19.55 197.59-18.25 198.94-16.15 200.29-14.05 200.29-10.9L200.29-10.9Q200.29-7.35 198.24-4.8 196.19-2.25 192.61-0.88 189.04 0.5 184.44 0.5ZM213.48 0L205.38 0Q204.83 0 204.46-0.38 204.08-0.75 204.08-1.3L204.08-1.3 204.08-34.2Q204.08-34.75 204.46-35.13 204.83-35.5 205.38-35.5L205.38-35.5 213.48-35.5Q213.98-35.5 214.38-35.13 214.78-34.75 214.78-34.2L214.78-34.2 214.78-23.25Q216.08-24.75 218.06-25.63 220.03-26.5 222.53-26.5L222.53-26.5Q225.23-26.5 227.51-25.25 229.78-24 231.16-21.5 232.53-19 232.53-15.2L232.53-15.2 232.53-1.3Q232.53-0.75 232.13-0.38 231.73 0 231.23 0L231.23 0 223.08 0Q222.53 0 222.16-0.38 221.78-0.75 221.78-1.3L221.78-1.3 221.78-14.85Q221.78-16.7 220.88-17.7 219.98-18.7 218.33-18.7L218.33-18.7Q216.68-18.7 215.73-17.7 214.78-16.7 214.78-14.85L214.78-14.85 214.78-1.3Q214.78-0.75 214.38-0.38 213.98 0 213.48 0L213.48 0ZM250.18 0.5L250.18 0.5Q243.93 0.5 240.26-2.73 236.58-5.95 236.48-12.6L236.48-12.6Q236.48-12.8 236.48-13.13 236.48-13.45 236.48-13.6L236.48-13.6Q236.63-17.75 238.31-20.63 239.98-23.5 243.01-25 246.03-26.5 250.13-26.5L250.13-26.5Q254.73-26.5 257.75-24.68 260.78-22.85 262.28-19.83 263.78-16.8 263.78-13.05L263.78-13.05 263.78-11.65Q263.78-11.15 263.38-10.75 262.98-10.35 262.43-10.35L262.43-10.35 247.03-10.35Q247.03-10.35 247.03-10.25 247.03-10.15 247.03-10.05L247.03-10.05Q247.03-8.85 247.36-7.93 247.68-7 248.38-6.48 249.08-5.95 250.08-5.95L250.08-5.95Q250.73-5.95 251.18-6.15 251.63-6.35 251.98-6.68 252.33-7 252.58-7.3L252.58-7.3Q253.03-7.75 253.31-7.88 253.58-8 254.18-8L254.18-8 262.03-8Q262.48-8 262.81-7.7 263.13-7.4 263.08-6.95L263.08-6.95Q263.03-6.05 262.23-4.78 261.43-3.5 259.86-2.3 258.28-1.1 255.83-0.3 253.38 0.5 250.18 0.5ZM247.03-16.05L247.03-15.95 253.23-15.95 253.23-16.05Q253.23-17.4 252.88-18.35 252.53-19.3 251.83-19.78 251.13-20.25 250.13-20.25L250.13-20.25Q249.13-20.25 248.43-19.78 247.73-19.3 247.38-18.35 247.03-17.4 247.03-16.05L247.03-16.05ZM276.63 0L269.18 0Q268.63 0 268.25-0.38 267.88-0.75 267.88-1.3L267.88-1.3 267.88-34.2Q267.88-34.75 268.25-35.13 268.63-35.5 269.18-35.5L269.18-35.5 276.63-35.5Q277.13-35.5 277.53-35.13 277.93-34.75 277.93-34.2L277.93-34.2 277.93-1.3Q277.93-0.75 277.53-0.38 277.13 0 276.63 0L276.63 0ZM291.68 0L284.43 0Q283.88 0 283.5-0.38 283.13-0.75 283.13-1.3L283.13-1.3 283.13-34.2Q283.13-34.75 283.5-35.13 283.88-35.5 284.43-35.5L284.43-35.5 291.68-35.5Q292.23-35.5 292.6-35.13 292.98-34.75 292.98-34.2L292.98-34.2 292.98-17.7 298.68-25.15Q298.88-25.4 299.23-25.7 299.58-26 300.23-26L300.23-26 308.63-26Q309.13-26 309.45-25.68 309.78-25.35 309.78-24.85L309.78-24.85Q309.78-24.65 309.7-24.4 309.63-24.15 309.48-24.05L309.48-24.05 301.53-14.3 310.73-1.9Q310.98-1.5 310.98-1.15L310.98-1.15Q310.98-0.65 310.65-0.33 310.33 0 309.83 0L309.83 0 301.13 0Q300.38 0 300.05-0.33 299.73-0.65 299.48-0.85L299.48-0.85 292.98-9.85 292.98-1.3Q292.98-0.75 292.6-0.38 292.23 0 291.68 0L291.68 0ZM326.57 0.5L326.57 0.5Q320.32 0.5 316.65-2.73 312.97-5.95 312.87-12.6L312.87-12.6Q312.87-12.8 312.87-13.13 312.87-13.45 312.87-13.6L312.87-13.6Q313.02-17.75 314.7-20.63 316.37-23.5 319.4-25 322.42-26.5 326.52-26.5L326.52-26.5Q331.12-26.5 334.15-24.68 337.17-22.85 338.67-19.83 340.17-16.8 340.17-13.05L340.17-13.05 340.17-11.65Q340.17-11.15 339.77-10.75 339.37-10.35 338.82-10.35L338.82-10.35 323.42-10.35Q323.42-10.35 323.42-10.25 323.42-10.15 323.42-10.05L323.42-10.05Q323.42-8.85 323.75-7.93 324.07-7 324.77-6.48 325.47-5.95 326.47-5.95L326.47-5.95Q327.12-5.95 327.57-6.15 328.02-6.35 328.37-6.68 328.72-7 328.97-7.3L328.97-7.3Q329.42-7.75 329.7-7.88 329.97-8 330.57-8L330.57-8 338.42-8Q338.87-8 339.2-7.7 339.52-7.4 339.47-6.95L339.47-6.95Q339.42-6.05 338.62-4.78 337.82-3.5 336.25-2.3 334.67-1.1 332.22-0.3 329.77 0.5 326.57 0.5ZM323.42-16.05L323.42-15.95 329.62-15.95 329.62-16.05Q329.62-17.4 329.27-18.35 328.92-19.3 328.22-19.78 327.52-20.25 326.52-20.25L326.52-20.25Q325.52-20.25 324.82-19.78 324.12-19.3 323.77-18.35 323.42-17.4 323.42-16.05L323.42-16.05Z" opacity="1" transform="matrix(1,0,0,1,0,0)" fill="#ffff33" class="wordmark-text-0" data-fill-palette-color="primary" id="text-0"></path></svg></g></svg></g></svg></g></svg></g><g transform="matrix(1,0,0,1,126.76951818856428,0)"><svg viewBox="0 0 62.87696362287144 46.69928458024325" height="46.69928458024325" width="62.87696362287144"><g><svg xmlns="http://www.w3.org/2000/svg" xmlns:xlink="http://www.w3.org/1999/xlink" version="1.1" x="0" y="0" viewBox="7.5 18.434999465942383 85.0009994506836 63.131004333496094" enable-background="new 0 0 100 100" xml:space="preserve" height="46.69928458024325" width="62.87696362287144" class="icon-icon-0" data-fill-palette-color="accent" id="icon-0"><g fill="#f8ff3e" data-fill-palette-color="accent"><path d="M89.405 18.435H10.595c-1.706 0-3.095 1.389-3.095 3.095v56.941c0 1.706 1.389 3.095 3.095 3.095h78.811c1.707 0 3.095-1.389 3.095-3.095V77.14 32.027 21.529C92.5 19.823 91.112 18.435 89.405 18.435zM10.595 19.673h78.811c1.023 0 1.857 0.833 1.857 1.856v9.075c-0.068-0.01-0.136-0.021-0.207-0.021H8.951c-0.073 0-0.143 0.011-0.213 0.021v-9.076C8.738 20.506 9.571 19.673 10.595 19.673zM91.263 77.14c0 0.114-0.093 0.206-0.207 0.206H8.951c-0.113 0-0.206-0.092-0.206-0.206V32.027c0-0.113 0.093-0.206 0.206-0.206h82.104c0.114 0 0.207 0.093 0.207 0.206V77.14zM89.405 80.327H10.595c-0.992 0-1.798-0.784-1.848-1.764 0.067 0.01 0.135 0.021 0.204 0.021h82.104c0.068 0 0.133-0.011 0.197-0.02C91.202 79.544 90.396 80.327 89.405 80.327z" fill="#f8ff3e" data-fill-palette-color="accent"></path><path d="M28.178 27.787c1.45 0 2.63-1.18 2.63-2.63 0-1.451-1.18-2.631-2.63-2.631s-2.631 1.18-2.631 2.631C25.547 26.607 26.728 27.787 28.178 27.787zM28.178 23.765c0.768 0 1.393 0.624 1.393 1.393 0 0.768-0.625 1.393-1.393 1.393-0.769 0-1.393-0.625-1.393-1.393C26.785 24.389 27.409 23.765 28.178 23.765z" fill="#f8ff3e" data-fill-palette-color="accent"></path><path d="M21.458 27.787c1.451 0 2.631-1.18 2.631-2.63 0-1.451-1.18-2.631-2.631-2.631-1.45 0-2.63 1.18-2.63 2.631C18.828 26.607 20.008 27.787 21.458 27.787zM21.458 23.765c0.769 0 1.393 0.624 1.393 1.393 0 0.768-0.624 1.393-1.393 1.393-0.768 0-1.393-0.625-1.393-1.393C20.065 24.389 20.69 23.765 21.458 23.765z" fill="#f8ff3e" data-fill-palette-color="accent"></path><path d="M14.738 27.787c1.451 0 2.631-1.18 2.631-2.63 0-1.451-1.18-2.631-2.631-2.631-1.45 0-2.63 1.18-2.63 2.631C12.108 26.607 13.288 27.787 14.738 27.787zM14.738 23.765c0.769 0 1.393 0.624 1.393 1.393 0 0.768-0.624 1.393-1.393 1.393-0.768 0-1.393-0.625-1.393-1.393C13.346 24.389 13.971 23.765 14.738 23.765z" fill="#f8ff3e" data-fill-palette-color="accent"></path></g><path d="M26.598 65.915c-0.624 0-1.395-0.429-2.289-1.276-1.605-1.519-2.16-2.371-1.2-3.405l8.79-8.811-8.774-8.782c-0.676-0.676-0.57-1.195-0.401-1.57 0.242-0.544 0.814-1.117 1.479-1.781 0.829-0.829 1.542-1.542 2.241-1.542 0.342 0 0.679 0.172 1.033 0.526l11.769 11.755c0.311 0.254 0.521 0.659 0.564 1.134 0.048 0.537-0.134 1.152-0.452 1.533L27.53 65.514C27.243 65.787 26.941 65.915 26.598 65.915zM23.846 42.57c-0.009 0 0.027 0.068 0.154 0.194l9.211 9.221c0.241 0.242 0.241 0.633 0 0.875L24 62.093c-0.093 0.1-0.125 0.147-0.133 0.166 0.012 0.047 0.125 0.377 1.292 1.48 0.979 0.927 1.42 0.938 1.438 0.938v0.619l0.01-0.62c-0.001 0.001-0.001 0.001-0.001 0.001-0.003 0 0.02-0.012 0.061-0.05l11.777-11.767c0.061-0.077 0.151-0.357 0.131-0.589-0.013-0.145-0.063-0.246-0.162-0.328L26.601 40.148c-0.144-0.143-0.215-0.171-0.215-0.171-0.182 0.06-0.886 0.764-1.307 1.184-0.531 0.532-1.077 1.078-1.227 1.413C23.85 42.571 23.848 42.57 23.846 42.57z" fill="#f8ff3e" data-fill-palette-color="accent"></path><path d="M55.834 71.436H40.498c-1.594 0-1.92-1.234-1.92-3.088s0.326-3.088 1.92-3.088h15.336c1.503 0 1.787 1.085 1.787 3.088C57.621 70.396 57.346 71.436 55.834 71.436zM40.498 66.497c-0.366 0-0.683 0-0.683 1.851s0.316 1.851 0.683 1.851h15.336c0.354 0 0.55 0 0.55-1.851s-0.219-1.851-0.55-1.851H40.498z" fill="#f8ff3e" data-fill-palette-color="accent"></path></svg></g></svg></g><g></g></svg></g></svg></g></svg></g></svg></g><defs></defs></svg><rect width="375.07952880859375" height="241.5693359375" fill="none" stroke="none" visibility="hidden"></rect></g></svg></g></svg>